PathFileType	3	(X/Y/Z)	RCH0000002 BBF 09.c3d
DataRate	CameraRate	NumFrames	NumMarkers	Units	OrigDataRate	OrigDataStartFrame	OrigNumFrames
100.0	100.0	16	23	mm	100.0	158	352
Frame#	Time	T2			T10			MAN			LASI			RASI			LPSI			RPSI			LPAT			LKNE			LANK			LMED			LHEE			LTOE			RPAT			RKNE			RANK			RMED			RHEE			RTOE			RTHI			LTHI			RTIB			LTIB			
		X1	Y1	Z1	X2	Y2	Z2	X3	Y3	Z3	X4	Y4	Z4	X5	Y5	Z5	X6	Y6	Z6	X7	Y7	Z7	X8	Y8	Z8	X9	Y9	Z9	X10	Y10	Z10	X11	Y11	Z11	X12	Y12	Z12	X13	Y13	Z13	X14	Y14	Z14	X15	Y15	Z15	X16	Y16	Z16	X17	Y17	Z17	X18	Y18	Z18	X19	Y19	Z19	X20	Y20	Z20	X21	Y21	Z21	X22	Y22	Z22	X23	Y23	Z23	

158	1.570	-1255.02791	53.97018	982.46426	-1235.88695	35.60810	795.94840	-1123.48328	79.01088	958.73595	-1158.22216	131.67572	651.59689	-1128.42168	-42.23736	652.48689	-1255.98178	61.91999	707.00935	-1244.64623	-8.19953	706.58687	-1155.01726	87.21056	380.76723	-1201.34112	145.39383	342.58627	-1268.30673	148.42314	74.35454	-1262.42071	79.42042	90.96027	-1304.64383	106.47961	106.10464	-1217.92793	114.25377	69.17902	-1077.15164	-0.52507	373.45517	-1125.49599	-57.40411	344.57499	-1289.78450	-97.61809	133.69329	-1302.01668	-29.79380	147.34117	-1314.57312	-69.22086	184.90974	-1266.89749	-56.99573	97.66863	-1119.70217	-124.00803	457.88625	-1205.90076	214.31664	468.11055	-1183.64005	-139.80943	261.52596	-1234.95038	210.20398	230.48390	
159	1.580	-1245.98524	54.06731	983.98858	-1228.30379	36.32089	797.29836	-1114.71494	79.22502	959.50769	-1152.19961	133.01439	652.42715	-1119.72944	-40.42012	654.03242	-1248.78160	61.67680	707.83431	-1236.58072	-8.11995	707.56837	-1152.23944	88.25063	380.50581	-1199.68647	145.78194	342.91157	-1268.32355	147.72781	75.10149	-1261.40332	78.78257	91.70104	-1303.91511	105.38305	107.14639	-1217.56875	114.06412	69.45585	-1059.53262	1.89192	379.65431	-1106.69392	-55.27813	349.00765	-1267.16485	-95.32132	135.08868	-1279.61258	-27.49991	148.46780	-1293.42260	-66.93162	185.59440	-1242.53916	-54.85716	100.37389	-1104.33085	-122.25376	462.13471	-1203.41124	214.62169	468.53896	-1163.39877	-137.55704	264.86754	-1234.96936	210.08117	231.00594	
160	1.590	-1236.88639	54.29490	985.18072	-1220.78888	36.92799	798.30471	-1105.86631	79.47370	959.79761	-1146.23660	134.22682	653.01725	-1111.10707	-38.73126	655.16156	-1241.67666	61.25265	708.26659	-1228.60924	-8.20149	708.09383	-1149.17023	89.49515	380.09576	-1197.73672	146.32806	343.12773	-1268.16836	147.38342	75.76257	-1260.38031	78.48859	92.41726	-1303.08436	104.75425	108.16130	-1217.12815	114.09959	69.66281	-1042.03063	3.82188	385.77108	-1088.07572	-53.39676	353.36625	-1244.40160	-92.69479	136.25876	-1256.85158	-24.84449	149.36257	-1272.01346	-64.24984	185.99380	-1218.03549	-52.44306	102.89439	-1089.33179	-120.75959	466.19854	-1200.85282	214.96816	468.89431	-1143.41518	-135.33511	268.03894	-1234.50060	210.21185	231.43251	
161	1.600	-1227.72046	54.61110	986.03421	-1213.29451	37.38984	798.96887	-1096.92591	79.73707	959.62168	-1140.27869	135.32136	653.39175	-1102.52390	-37.17093	655.84605	-1234.61686	60.66409	708.33483	-1220.69303	-8.43719	708.16223	-1145.87913	90.89990	379.54060	-1195.54007	147.03291	343.24433	-1267.87502	147.35600	76.33174	-1259.37647	78.51145	93.09917	-1302.18904	104.55021	109.13296	-1216.62707	114.34145	69.80257	-1024.74437	5.28839	391.72854	-1069.73871	-51.74582	357.57344	-1221.46524	-89.77326	137.12411	-1233.73264	-21.85863	149.93392	-1250.34691	-61.20273	186.00829	-1193.36192	-49.78671	105.14577	-1074.75692	-119.51381	469.99022	-1198.16064	215.37569	469.18313	-1123.72333	-133.15080	270.96498	-1233.61508	210.58780	231.75534	
162	1.610	-1218.47826	54.96798	986.55313	-1205.77358	37.67656	799.30197	-1087.88499	79.99084	959.01267	-1134.26147	136.30427	653.57777	-1093.94811	-35.74013	656.07877	-1227.54502	59.93711	708.07493	-1212.78949	-8.81115	707.78737	-1142.43765	92.40189	378.85079	-1193.14803	147.87577	343.27616	-1267.48531	147.58646	76.81193	-1258.41269	78.79833	93.74035	-1301.26668	104.69481	110.05180	-1216.08961	114.75378	69.88205	-1007.78911	6.34933	397.44563	-1051.78810	-50.29076	361.54909	-1198.31531	-86.60384	137.59586	-1210.26467	-18.59241	150.08454	-1228.42362	-57.84350	185.53002	-1168.48999	-46.92346	107.03971	-1060.65146	-118.48794	473.42323	-1195.26580	215.85144	469.40968	-1104.33934	-131.00311	273.56207	-1232.40416	211.17453	231.97647	
163	1.620	-1209.15244	55.31491	986.75003	-1198.18048	37.76894	799.32245	-1078.73725	80.20748	958.01688	-1128.11331	137.18007	653.60268	-1085.34613	-34.44002	655.87107	-1220.39917	59.10384	707.52619	-1204.85283	-9.30114	706.99502	-1138.90913	93.93235	378.04239	-1190.60822	148.82237	343.24216	-1267.04215	148.00333	77.21437	-1257.50437	79.28259	94.33939	-1300.35027	105.09559	110.91672	-1215.53997	115.29162	69.91162	-991.28954	7.09380	402.83238	-1034.33091	-48.97896	365.20800	-1174.91386	-83.24395	137.58215	-1186.47671	-15.11291	149.71774	-1206.25127	-54.24980	184.45113	-1143.40375	-43.88931	108.48853	-1047.04854	-117.63740	476.41239	-1192.10134	216.39374	469.57682	-1085.26229	-128.88317	275.73917	-1230.96450	211.92153	232.10776	
164	1.630	-1199.73766	55.60162	986.64359	-1190.47192	37.65883	799.05349	-1069.47860	80.35746	956.69038	-1121.75906	137.95231	653.49196	-1076.68244	-33.27098	655.24935	-1213.11542	58.19923	706.72766	-1196.83507	-9.88115	705.81988	-1135.33962	95.42746	377.13477	-1187.95687	149.83233	343.16331	-1266.58342	148.53461	77.55747	-1256.65996	79.89495	94.90080	-1299.46418	105.65919	111.73578	-1214.99936	115.90848	69.90397	-975.37099	7.63712	407.78695	-1017.46912	-47.74329	368.45914	-1151.24158	-79.75888	136.99608	-1162.42872	-11.50077	148.74482	-1183.85488	-50.51975	182.67349	-1118.11641	-40.72034	109.41081	-1033.96332	-116.90306	478.87579	-1188.60615	216.99546	469.68628	-1066.47825	-126.77546	277.40158	-1229.38385	212.77225	232.16924	
165	1.640	-1190.23084	55.78079	986.25637	-1182.60763	37.34890	798.52058	-1060.10695	80.41060	955.09516	-1115.12420	138.62467	653.26706	-1067.91984	-32.23143	654.25136	-1205.63115	57.25814	705.71507	-1188.68759	-10.52368	704.30281	-1131.75027	96.83581	376.14768	-1185.21166	150.86540	343.05968	-1266.13717	149.11703	77.86541	-1255.87978	80.57234	95.43499	-1298.62111	106.30306	112.52601	-1214.48327	116.56240	69.87285	-960.14986	8.11431	412.19573	-1001.29255	-46.50700	371.20718	-1127.31492	-76.21903	135.76467	-1138.22171	-7.84566	147.09300	-1161.28860	-46.76587	180.11929	-1092.68560	-37.45303	109.73770	-1021.38782	-116.21369	480.73814	-1184.72682	217.64635	469.73822	-1047.96719	-124.65945	278.45807	-1227.72889	213.67218	232.18649	
166	1.650	-1180.63126	55.81019	985.61275	-1174.55098	36.85202	797.74948	-1050.62215	80.33752	953.29532	-1108.13919	139.20204	652.94353	-1059.02047	-31.31691	652.92278	-1197.88817	56.31335	704.51864	-1180.36299	-11.20147	702.48850	-1128.13173	98.12222	375.09779	-1182.36558	151.88559	342.94683	-1265.71836	149.70194	78.16661	-1255.15500	81.26380	95.95758	-1297.81993	106.96285	113.31262	-1213.99933	117.21970	69.83192	-945.72423	8.67206	415.93705	-985.87216	-45.18939	373.35666	-1103.20194	-72.69720	133.83790	-1114.00550	-4.24127	144.71353	-1138.64698	-43.10772	176.74172	-1067.22540	-34.12524	109.41953	-1009.28750	-115.48960	481.93577	-1180.41728	218.33465	469.72983	-1029.71213	-122.51182	278.83028	-1226.03630	214.57455	232.18751	
167	1.660	-1170.94075	55.65424	984.73734	-1166.26960	36.19041	796.76460	-1041.02594	80.11120	951.35380	-1100.74359	139.69143	652.52954	-1049.94746	-30.51954	651.31443	-1189.83585	55.39450	703.16203	-1171.81739	-11.88839	700.42399	-1124.44078	99.26833	373.99514	-1179.38242	152.86335	342.83186	-1265.32693	150.25773	78.49235	-1254.46704	81.93309	96.48822	-1297.04436	107.59534	114.12769	-1213.54587	117.85652	69.79358	-932.16562	9.45916	418.88895	-971.25442	-43.71221	374.81874	-1079.03462	-69.26594	131.19704	-1089.98275	-0.78005	141.58947	-1116.07376	-39.66381	172.53478	-1041.91356	-30.77758	108.43204	-997.60075	-114.64741	482.42255	-1175.63680	219.04777	469.65336	-1011.70903	-120.30883	278.46343	-1224.30698	215.44308	232.19895	
168	1.670	-1161.16370	55.28520	983.65389	-1157.73608	35.39459	795.58818	-1031.32201	79.70856	949.32963	-1092.88969	140.10248	652.02488	-1040.66723	-29.82811	649.48022	-1181.43395	54.52804	701.66238	-1163.01298	-12.55967	698.15795	-1120.59948	100.27038	372.83986	-1176.19451	153.77585	342.70968	-1264.94676	150.76935	78.87547	-1253.78701	82.55862	97.04904	-1296.26203	108.17774	115.00859	-1213.11104	118.45823	69.76829	-919.51303	10.61557	420.94033	-957.45780	-42.00641	375.52012	-1055.01530	-65.99521	127.86115	-1066.40774	2.45161	137.74237	-1093.76610	-36.54354	167.54101	-1016.99228	-27.45482	106.78163	-986.24220	-113.60613	482.17610	-1170.34740	219.77234	469.49403	-993.97628	-118.02903	277.33627	-1222.50325	216.25248	232.24241	
169	1.680	-1151.30701	54.68401	982.38482	-1148.92872	34.50232	794.24009	-1021.51606	79.11211	947.27604	-1084.54528	140.44740	651.42084	-1031.15225	-29.22871	647.47616	-1172.65500	53.73795	700.03153	-1153.92061	-13.19158	695.74080	-1116.49719	101.13520	371.61988	-1172.70308	154.60581	342.56014	-1264.54490	151.23540	79.34923	-1253.07530	83.13127	97.66333	-1295.42385	108.70472	115.99629	-1212.67241	119.01719	69.76417	-907.76992	12.26026	422.00445	-944.47195	-40.01896	375.41294	-1031.41540	-62.95011	123.89113	-1043.57889	5.37772	133.23690	-1071.97248	-33.83970	161.85595	-992.76155	-24.20667	104.50889	-975.11001	-112.29438	481.20316	-1164.51130	220.49362	469.22835	-976.56202	-115.65610	275.46854	-1220.54872	216.98706	232.33092	
170	1.690	-1141.37994	53.84093	980.95146	-1139.83243	33.55739	792.73847	-1011.61585	78.31147	945.23930	-1075.69555	140.74035	650.70083	-1021.38387	-28.70612	645.36003	-1163.48610	53.04689	698.27801	-1144.52232	-13.76069	693.22536	-1111.99529	101.87519	370.31001	-1168.78154	155.33956	342.34659	-1264.07085	151.66405	79.94653	-1252.28115	83.65099	98.35433	-1294.46343	109.18410	117.13356	-1212.19661	119.52975	69.78716	-896.90478	14.47844	422.03284	-932.26016	-37.71940	374.48436	-1008.56500	-60.18881	119.39012	-1021.82464	7.93622	128.18245	-1050.98324	-31.62224	155.62817	-969.56438	-21.08781	101.68959	-964.09691	-110.65827	479.54336	-1158.08937	221.19480	468.82349	-959.54805	-113.18221	272.92415	-1218.33043	217.63825	232.46617	
171	1.700	-1131.39384	52.75599	979.37478	-1130.43968	32.60836	791.10099	-1001.63131	77.30479	943.25847	-1066.34372	140.99627	649.84219	-1011.35499	-28.24555	643.19168	-1153.92998	52.47737	696.40980	-1134.81336	-14.24321	690.66776	-1106.93482	102.50335	368.87292	-1164.28171	155.96487	342.01670	-1263.45583	152.06827	80.69932	-1251.34228	84.12297	99.14469	-1293.29666	109.63216	118.46337	-1211.63913	119.99289	69.84188	-886.85519	17.30914	421.02737	-920.76515	-35.10571	372.76397	-986.83318	-57.76038	114.49994	-1001.48272	10.08171	122.73057	-1031.11366	-29.93359	149.05380	-947.76451	-18.15652	98.43253	-953.10383	-108.66952	477.27034	-1151.04088	221.85619	468.23821	-943.04945	-110.61165	269.80898	-1215.70325	218.20188	232.63690	
172	1.710	-1121.36188	51.43936	977.67663	-1120.75146	31.70710	789.34652	-991.57451	76.09975	941.36582	-1056.51059	141.22916	648.81891	-1001.07215	-27.83460	641.03345	-1144.00510	52.05260	694.43730	-1124.80356	-14.61462	688.12818	-1101.14638	103.02911	367.26240	-1159.04273	156.46922	341.50573	-1262.61241	152.46138	81.63841	-1250.18468	84.55401	100.05640	-1291.82176	110.06926	120.02730	-1210.94403	120.40140	69.93301	-877.53512	20.73453	419.04821	-909.91782	-32.20881	370.32759	-966.60006	-55.70283	109.39303	-982.87460	11.78719	117.06780	-1012.68041	-28.78620	142.36516	-927.71809	-15.47211	94.87388	-942.05430	-106.33280	474.48983	-1143.32468	222.45476	467.42566	-927.20944	-107.96473	266.26323	-1212.49674	218.67548	232.81901	
173	1.720	-1111.29874	49.91153	975.88112	-1110.77806	30.90699	787.49710	-981.45971	74.71422	939.58785	-1046.23288	141.45016	647.60524	-990.55671	-27.46534	638.95046	-1133.74478	51.79647	692.37616	-1114.51774	-14.84992	685.67115	-1094.46191	103.45558	365.42893	-1152.90200	156.83880	340.74255	-1261.43504	152.85328	82.79353	-1248.72274	84.94951	101.11126	-1289.92035	110.51584	121.86414	-1210.04364	120.74605	70.06729	-868.84466	24.67284	416.21548	-899.64793	-29.09525	367.29591	-948.22296	-54.04129	104.26024	-966.27723	13.04465	111.40368	-995.97374	-28.16270	135.81394	-909.74193	-13.09119	91.16810	-930.90745	-103.69141	471.33465	-1134.90166	222.96426	466.33809	-912.18979	-105.28133	262.44905	-1208.52473	219.05619	232.97770	
